<svg width="60" height="58" viewBox="0 0 60 58" fill="none" xmlns="http://www.w3.org/2000/svg">
<path d="M59.041 36.5782C59.041 48.215 49.6076 57.6484 37.9708 57.6484L6.36542 57.6484C3.13298 57.6484 0.512581 55.028 0.512581 51.7956L0.512585 11.9962C0.512585 5.53138 5.7534 0.290576 12.2183 0.290577L53.1882 0.29058C56.4206 0.290581 59.041 2.91099 59.041 6.14342L59.041 36.5782Z" fill="#8A4796"/>
<path d="M38.5601 15.5039H22.1722C20.6205 15.5059 19.1329 16.1793 18.0356 17.3762C16.9384 18.5732 16.3212 20.1961 16.3193 21.8888V37.2126C16.3212 38.9054 16.9384 40.5282 18.0356 41.7252C19.1329 42.9222 20.6205 43.5955 22.1722 43.5976H38.5601C40.1118 43.5955 41.5995 42.9222 42.6967 41.7252C43.7939 40.5282 44.4111 38.9054 44.413 37.2126V21.8888C44.4111 20.1961 43.7939 18.5732 42.6967 17.3762C41.5995 16.1793 40.1118 15.5059 38.5601 15.5039ZM22.1722 18.0579H38.5601C39.4915 18.0579 40.3847 18.4615 41.0433 19.1799C41.7019 19.8984 42.0718 20.8728 42.0718 21.8888V23.1658H18.6605V21.8888C18.6605 20.8728 19.0305 19.8984 19.689 19.1799C20.3476 18.4615 21.2408 18.0579 22.1722 18.0579ZM38.5601 41.0436H22.1722C21.2408 41.0436 20.3476 40.64 19.689 39.9215C19.0305 39.2031 18.6605 38.2287 18.6605 37.2126V25.7198H42.0718V37.2126C42.0718 38.2287 41.7019 39.2031 41.0433 39.9215C40.3847 40.64 39.4915 41.0436 38.5601 41.0436ZM38.5601 30.8277C38.5601 31.1664 38.4368 31.4912 38.2173 31.7307C37.9978 31.9702 37.7 32.1047 37.3896 32.1047H23.3427C23.0323 32.1047 22.7346 31.9702 22.515 31.7307C22.2955 31.4912 22.1722 31.1664 22.1722 30.8277C22.1722 30.489 22.2955 30.1642 22.515 29.9247C22.7346 29.6853 23.0323 29.5507 23.3427 29.5507H37.3896C37.7 29.5507 37.9978 29.6853 38.2173 29.9247C38.4368 30.1642 38.5601 30.489 38.5601 30.8277ZM33.8779 35.9356C33.8779 36.2743 33.7545 36.5991 33.535 36.8386C33.3155 37.0781 33.0177 37.2126 32.7073 37.2126H23.3427C23.0323 37.2126 22.7346 37.0781 22.515 36.8386C22.2955 36.5991 22.1722 36.2743 22.1722 35.9356C22.1722 35.597 22.2955 35.2722 22.515 35.0327C22.7346 34.7932 23.0323 34.6587 23.3427 34.6587H32.7073C33.0177 34.6587 33.3155 34.7932 33.535 35.0327C33.7545 35.2722 33.8779 35.597 33.8779 35.9356ZM19.831 20.6118C19.831 20.3593 19.8997 20.1124 20.0283 19.9024C20.1569 19.6924 20.3398 19.5287 20.5537 19.4321C20.7675 19.3354 21.0029 19.3101 21.23 19.3594C21.457 19.4087 21.6656 19.5303 21.8293 19.7089C21.993 19.8875 22.1045 20.115 22.1497 20.3627C22.1949 20.6104 22.1717 20.8672 22.0831 21.1005C21.9945 21.3339 21.8444 21.5333 21.6519 21.6736C21.4594 21.8139 21.2331 21.8888 21.0016 21.8888C20.6912 21.8888 20.3934 21.7543 20.1739 21.5148C19.9544 21.2753 19.831 20.9505 19.831 20.6118ZM23.3427 20.6118C23.3427 20.3593 23.4114 20.1124 23.54 19.9024C23.6686 19.6924 23.8515 19.5287 24.0654 19.4321C24.2793 19.3354 24.5146 19.3101 24.7417 19.3594C24.9688 19.4087 25.1773 19.5303 25.341 19.7089C25.5047 19.8875 25.6162 20.115 25.6614 20.3627C25.7066 20.6104 25.6834 20.8672 25.5948 21.1005C25.5062 21.3339 25.3561 21.5333 25.1636 21.6736C24.9711 21.8139 24.7448 21.8888 24.5133 21.8888C24.2029 21.8888 23.9051 21.7543 23.6856 21.5148C23.4661 21.2753 23.3427 20.9505 23.3427 20.6118ZM26.8545 20.6118C26.8545 20.3593 26.9231 20.1124 27.0517 19.9024C27.1804 19.6924 27.3632 19.5287 27.5771 19.4321C27.791 19.3354 28.0263 19.3101 28.2534 19.3594C28.4805 19.4087 28.689 19.5303 28.8527 19.7089C29.0164 19.8875 29.1279 20.115 29.1731 20.3627C29.2183 20.6104 29.1951 20.8672 29.1065 21.1005C29.0179 21.3339 28.8679 21.5333 28.6754 21.6736C28.4829 21.8139 28.2565 21.8888 28.025 21.8888C27.7146 21.8888 27.4168 21.7543 27.1973 21.5148C26.9778 21.2753 26.8545 20.9505 26.8545 20.6118Z" fill="white"/>
</svg>
