<svg width="21" height="21" viewBox="0 0 21 21" fill="none" xmlns="http://www.w3.org/2000/svg">
<path fill-rule="evenodd" clip-rule="evenodd" d="M10.4099 0.0546875C7.59862 0.0546875 7.24581 0.0669798 6.14166 0.117227C5.03967 0.16769 4.28746 0.342155 3.62929 0.598137C2.94846 0.862529 2.37094 1.2162 1.79558 1.79178C1.21978 2.36715 0.866106 2.94467 0.600851 3.62528C0.344222 4.28367 0.169542 5.03609 0.119941 6.13765C0.0705565 7.2418 0.0576172 7.59483 0.0576172 10.4061C0.0576172 13.2174 0.0701251 13.5691 0.120157 14.6733C0.170836 15.7752 0.3453 16.5274 0.601066 17.1856C0.865674 17.8664 1.21935 18.444 1.79493 19.0193C2.37008 19.5951 2.9476 19.9497 3.62799 20.2141C4.2866 20.47 5.03902 20.6445 6.1408 20.695C7.24495 20.7452 7.59754 20.7575 10.4086 20.7575C13.2201 20.7575 13.5718 20.7452 14.676 20.695C15.778 20.6445 16.531 20.47 17.1896 20.2141C17.8702 19.9497 18.4469 19.5951 19.0221 19.0193C19.5978 18.444 19.9515 17.8664 20.2168 17.1858C20.4712 16.5274 20.6459 15.775 20.6977 14.6735C20.7473 13.5693 20.7602 13.2174 20.7602 10.4061C20.7602 7.59483 20.7473 7.24202 20.6977 6.13787C20.6459 5.03587 20.4712 4.28367 20.2168 3.62549C19.9515 2.94467 19.5978 2.36715 19.0221 1.79178C18.4463 1.21599 17.8705 0.862313 17.189 0.598137C16.5291 0.342155 15.7765 0.16769 14.6745 0.117227C13.5703 0.0669798 13.2188 0.0546875 10.4067 0.0546875H10.4099ZM9.48124 1.92007C9.75685 1.91964 10.0644 1.92007 10.4098 1.92007C13.1737 1.92007 13.5013 1.92999 14.5927 1.97959C15.6019 2.02574 16.1497 2.19438 16.5146 2.33607C16.9977 2.52369 17.3421 2.74797 17.7041 3.11027C18.0664 3.47257 18.2907 3.81761 18.4788 4.30068C18.6205 4.66513 18.7893 5.2129 18.8352 6.22216C18.8848 7.31337 18.8956 7.64117 18.8956 10.4037C18.8956 13.1662 18.8848 13.494 18.8352 14.5852C18.7891 15.5945 18.6205 16.1423 18.4788 16.5067C18.2912 16.9898 18.0664 17.3338 17.7041 17.6958C17.3418 18.0581 16.9979 18.2824 16.5146 18.47C16.1501 18.6124 15.6019 18.7806 14.5927 18.8267C13.5015 18.8763 13.1737 18.8871 10.4098 18.8871C7.6458 18.8871 7.31823 18.8763 6.22701 18.8267C5.21775 18.7801 4.66999 18.6115 4.30489 18.4698C3.82182 18.2822 3.47677 18.0579 3.11447 17.6956C2.75217 17.3333 2.52789 16.9891 2.33984 16.5059C2.19816 16.1414 2.0293 15.5936 1.98337 14.5844C1.93377 13.4932 1.92385 13.1654 1.92385 10.4011C1.92385 7.63685 1.93377 7.31078 1.98337 6.21957C2.02952 5.21031 2.19816 4.66255 2.33984 4.29766C2.52746 3.81459 2.75217 3.46955 3.11447 3.10725C3.47677 2.74495 3.82182 2.52067 4.30489 2.33262C4.66977 2.19028 5.21775 2.02207 6.22701 1.97571C7.18193 1.93258 7.55199 1.91964 9.48124 1.91748V1.92007ZM15.9354 3.63884C15.2496 3.63884 14.6932 4.19458 14.6932 4.88058C14.6932 5.56636 15.2496 6.12275 15.9354 6.12275C16.6211 6.12275 17.1775 5.56636 17.1775 4.88058C17.1775 4.1948 16.6211 3.63884 15.9354 3.63884ZM10.4099 5.09019C7.47421 5.09019 5.09403 7.47037 5.09403 10.4061C5.09403 13.3418 7.47421 15.7209 10.4099 15.7209C13.3456 15.7209 15.7249 13.3418 15.7249 10.4061C15.7249 7.47037 13.3456 5.09019 10.4099 5.09019ZM10.4099 6.9556C12.3154 6.9556 13.8603 8.50033 13.8603 10.4061C13.8603 12.3116 12.3154 13.8565 10.4099 13.8565C8.50413 13.8565 6.9594 12.3116 6.9594 10.4061C6.9594 8.50033 8.50413 6.9556 10.4099 6.9556Z" fill="white"/>
</svg>
