<svg width="68" height="66" viewBox="0 0 68 66" fill="none" xmlns="http://www.w3.org/2000/svg">
<g filter="url(#filter0_d_726_419)">
<path d="M63.1465 36.8068C63.1465 48.4489 53.7087 57.8867 42.0666 57.8867L10.4467 57.8867C7.21273 57.8867 4.59112 55.2651 4.59112 52.0312L4.59113 12.2135C4.59113 5.74568 9.83435 0.502456 16.3022 0.502456L57.291 0.50246C60.5249 0.50246 63.1465 3.12407 63.1465 6.358L63.1465 36.8068Z" fill="#8A4796"/>
<g clip-path="url(#clip0_726_419)">
<path d="M46.163 18.0391H42.5489C42.3174 18.0391 42.091 18.1078 41.8984 18.2365C41.7059 18.3652 41.5558 18.5481 41.4672 18.762C41.3786 18.976 41.3554 19.2114 41.4006 19.4386C41.4457 19.6657 41.5572 19.8744 41.721 20.0381L42.9928 21.31L38.7932 25.5084C38.5701 25.7216 38.2733 25.8406 37.9646 25.8406C37.656 25.8406 37.3592 25.7216 37.1361 25.5084L36.937 25.3081C36.2678 24.6688 35.378 24.312 34.4525 24.312C33.527 24.312 32.6371 24.6688 31.968 25.3081L25.9953 31.2808C25.7753 31.5015 25.6519 31.8005 25.6523 32.1122C25.6528 32.4238 25.777 32.7225 25.9977 32.9426C26.2184 33.1626 26.5174 33.286 26.8291 33.2856C27.1407 33.2851 27.4394 33.1609 27.6595 32.9402L33.6321 26.9676C33.8551 26.7541 34.152 26.6349 34.4607 26.6349C34.7694 26.6349 35.0663 26.7541 35.2893 26.9676L35.4883 27.1678C36.1578 27.8067 37.0475 28.1631 37.9728 28.1631C38.8982 28.1631 39.7879 27.8067 40.4573 27.1678L44.6569 22.9683L45.9288 24.2401C46.0931 24.4012 46.3012 24.5103 46.5272 24.5538C46.7532 24.5972 46.987 24.5732 47.1993 24.4846C47.4117 24.396 47.5933 24.2469 47.7214 24.0557C47.8495 23.8645 47.9185 23.6399 47.9196 23.4098V19.7957C47.9196 19.3298 47.7346 18.883 47.4051 18.5536C47.0757 18.2241 46.6289 18.0391 46.163 18.0391Z" fill="#F0E8F2"/>
<path d="M46.748 39.1191H25.668C24.7362 39.1191 23.8426 38.7489 23.1837 38.09C22.5249 37.4312 22.1547 36.5375 22.1547 35.6057V14.5539C22.1547 14.2433 22.0313 13.9454 21.8117 13.7258C21.5921 13.5062 21.2942 13.3828 20.9836 13.3828C20.673 13.3828 20.3751 13.5062 20.1555 13.7258C19.9359 13.9454 19.8125 14.2433 19.8125 14.5539V35.6057C19.8144 37.1582 20.4319 38.6465 21.5296 39.7442C22.6273 40.8419 24.1156 41.4594 25.668 41.4613H46.748C47.0586 41.4613 47.3564 41.3379 47.5761 41.1183C47.7957 40.8986 47.9191 40.6008 47.9191 40.2902C47.9191 39.9796 47.7957 39.6817 47.5761 39.4621C47.3564 39.2424 47.0586 39.1191 46.748 39.1191Z" fill="#F0E8F2"/>
</g>
</g>
<defs>
<filter id="filter0_d_726_419" x="0.591797" y="0.503906" width="66.5547" height="65.3828" filterUnits="userSpaceOnUse" color-interpolation-filters="sRGB">
<feFlood flood-opacity="0" result="BackgroundImageFix"/>
<feColorMatrix in="SourceAlpha" type="matrix" values="0 0 0 0 0 0 0 0 0 0 0 0 0 0 0 0 0 0 127 0" result="hardAlpha"/>
<feOffset dy="4"/>
<feGaussianBlur stdDeviation="2"/>
<feComposite in2="hardAlpha" operator="out"/>
<feColorMatrix type="matrix" values="0 0 0 0 0 0 0 0 0 0 0 0 0 0 0 0 0 0 0.25 0"/>
<feBlend mode="normal" in2="BackgroundImageFix" result="effect1_dropShadow_726_419"/>
<feBlend mode="normal" in="SourceGraphic" in2="effect1_dropShadow_726_419" result="shape"/>
</filter>
<clipPath id="clip0_726_419">
<rect width="28.1066" height="28.1066" fill="white" transform="translate(19.8125 13.3828)"/>
</clipPath>
</defs>
</svg>
