<svg width="67" height="66" viewBox="0 0 67 66" fill="none" xmlns="http://www.w3.org/2000/svg">
<g filter="url(#filter0_d_726_418)">
<path d="M62.4961 36.5394C62.4961 48.0099 53.1974 57.3086 41.7269 57.3086L10.573 57.3086C7.38676 57.3086 4.80378 54.7256 4.80378 51.5394L4.80379 12.3086C4.80379 5.93608 9.96973 0.770133 16.3423 0.770134L56.7269 0.770137C59.9131 0.770138 62.4961 3.35311 62.4961 6.53937L62.4961 36.5394Z" fill="#8A4796"/>
<g clip-path="url(#clip0_726_418)">
<path d="M46.4601 15.6556C45.7867 15.0141 44.8922 14.6562 43.9621 14.6562C43.0319 14.6562 42.1375 15.0141 41.464 15.6556L28.5328 28.5787C28.1305 28.5012 27.7217 28.4626 27.3121 28.4633C26.4792 28.4609 25.6542 28.6238 24.8847 28.9424C24.1152 29.2611 23.4166 29.7293 22.8294 30.3198C20.614 32.5398 20.0209 39.5725 19.9217 40.9594L19.834 42.2817L21.1551 42.1894C22.5398 42.0948 29.5782 41.5052 31.7959 39.2864C32.5295 38.5507 33.071 37.6459 33.3728 36.6518C33.6746 35.6577 33.7275 34.6046 33.5267 33.5852L46.4601 20.6517C47.1209 19.9883 47.4919 19.09 47.4919 18.1537C47.4919 17.2173 47.1209 16.3191 46.4601 15.6556V15.6556ZM30.1644 37.6548C29.0913 38.7267 25.2409 39.4548 22.3482 39.7664C22.6748 36.7664 23.4363 32.9771 24.4609 31.9514C25.2297 31.259 26.2348 30.8881 27.269 30.9151C28.3032 30.9421 29.2877 31.365 30.0192 32.0965C30.7508 32.8281 31.1737 33.8125 31.2007 34.8467C31.2277 35.8809 30.8567 36.8861 30.1644 37.6548V37.6548ZM44.8309 19.0202L32.5759 31.2764C32.1206 30.5869 31.5321 29.9954 30.8451 29.5364L43.0955 17.2848C43.3286 17.0622 43.6386 16.938 43.9609 16.938C44.2832 16.938 44.5932 17.0622 44.8263 17.2848C44.9408 17.3984 45.0317 17.5333 45.0939 17.6821C45.1561 17.8308 45.1883 17.9903 45.1887 18.1516C45.1892 18.3128 45.1578 18.4725 45.0964 18.6215C45.035 18.7706 44.9448 18.9061 44.8309 19.0202V19.0202Z" fill="white"/>
</g>
</g>
<defs>
<filter id="filter0_d_726_418" x="0.804688" y="0.769531" width="65.6914" height="64.5391" filterUnits="userSpaceOnUse" color-interpolation-filters="sRGB">
<feFlood flood-opacity="0" result="BackgroundImageFix"/>
<feColorMatrix in="SourceAlpha" type="matrix" values="0 0 0 0 0 0 0 0 0 0 0 0 0 0 0 0 0 0 127 0" result="hardAlpha"/>
<feOffset dy="4"/>
<feGaussianBlur stdDeviation="2"/>
<feComposite in2="hardAlpha" operator="out"/>
<feColorMatrix type="matrix" values="0 0 0 0 0 0 0 0 0 0 0 0 0 0 0 0 0 0 0.25 0"/>
<feBlend mode="normal" in2="BackgroundImageFix" result="effect1_dropShadow_726_418"/>
<feBlend mode="normal" in="SourceGraphic" in2="effect1_dropShadow_726_418" result="shape"/>
</filter>
<clipPath id="clip0_726_418">
<rect width="27.6923" height="27.6923" fill="white" transform="translate(19.8066 14.6172)"/>
</clipPath>
</defs>
</svg>
